<?xml version="1.0" encoding="utf-8"?>
<svg width="800px" height="800px" viewBox="0 0 24 24" fill="none" xmlns="http://www.w3.org/2000/svg">
<path d="M21.734 2.27c-2.325-2.322-6.12-2.322-8.444 0L2.27 13.29c-0.908 0.909-1.471 2.119-1.545 3.412L0 21.75l5.048-0.78c1.292-0.168 2.502-0.731 3.41-1.64l11.02-11.02c2.323-2.324 2.323-6.12 0-8.44zM16.95 15.67l-0.52 0.95c-0.47 0.86-1.49 1.43-2.48 1.29-1.81-0.26-3.58-1.23-5.01-2.65-1.43-1.44-2.41-3.21-2.66-5.03-0.17-0.98 0.42-2 1.29-2.47l0.95-0.52c0.16-0.09 0.36-0.08 0.51 0.03L15.12 9.9c0.12 0.07 0.2 0.18 0.25 0.31 0.63 1.59 1.66 3.07 3 4.41 1.35 1.34 2.83 2.37 4.42 2.99 0.13 0.05 0.24 0.13 0.32 0.25l1.34 1.34-2.95 0.52c-1.29 0.23-2.65-0.17-3.67-1.19-1.02-1.01-1.42-2.37-1.2-3.66l0.51-2.97 1.22 0.99c0.12 0.1 0.29 0.12 0.43 0.05l2.62-1.5c0.22-0.12 0.47-0.01 0.59 0.2l0.97 1.61c0.03 0.05 0.05 0.11 0.05 0.17 0 0.14-0.08 0.27-0.2 0.34l-2.2 1.39c-0.18 0.11-0.28 0.32-0.25 0.53z" fill="#000"/>
</svg>
