<?xml version="1.0" encoding="UTF-8"?>
<svg id="Capa_2" data-name="Capa 2" xmlns="http://www.w3.org/2000/svg" viewBox="0 0 651.17 541.74">
  <defs>
    <style>
      .cls-1 {
        fill: #000f9f;
      }
    </style>
  </defs>
  <g id="Capa_1-2" data-name="Capa 1">
    <path class="cls-1" d="M590.46,118.2h-93.81V54.17c-.04-29.9-27.19-54.14-60.7-54.17h-220.73c-33.51.04-60.66,24.27-60.7,54.17v64.02H60.7C27.19,118.24.04,142.47,0,172.37v315.2c.04,29.9,27.19,54.14,60.7,54.17h529.76c33.51-.04,60.66-24.27,60.7-54.17V172.37c-.04-29.9-27.19-54.14-60.7-54.17h0ZM187.62,54.17c.02-13.59,12.36-24.61,27.59-24.62h220.73c15.23.02,27.57,11.03,27.59,24.62v64.02H187.62V54.17ZM618.06,487.57c-.02,13.59-12.36,24.61-27.59,24.62H60.7c-15.23-.02-27.57-11.03-27.59-24.62V172.37c.02-13.59,12.36-24.61,27.59-24.62h529.76c15.23.02,27.57,11.03,27.59,24.62h0v315.2Z"/>
  </g>
</svg>