<?xml version="1.0" encoding="UTF-8"?>
<svg id="Capa_2" data-name="Capa 2" xmlns="http://www.w3.org/2000/svg" viewBox="0 0 675.88 530.51">
  <defs>
    <style>
      .cls-1 {
        fill: #000f9f;
      }
    </style>
  </defs>
  <g id="Capa_1-2" data-name="Capa 1">
    <path class="cls-1" d="M674.13,75.53c-3.05-15.35-9.85-29.39-19.35-40.99-2-2.53-4.1-4.79-6.37-7.06-16.84-16.92-40.47-27.48-66.29-27.48H93.75c-25.82,0-49.36,10.56-66.28,27.48-2.26,2.26-4.36,4.53-6.37,7.06C11.6,46.13,4.79,60.18,1.83,75.53c-1.22,5.92-1.83,12.04-1.83,18.23v343c0,13.16,2.79,25.81,7.77,37.23,4.62,10.9,11.42,20.77,19.7,29.04,2.1,2.09,4.18,4.02,6.46,5.93,16.22,13.43,37.15,21.54,59.82,21.54h488.37c22.68,0,43.71-8.11,59.83-21.63,2.27-1.83,4.36-3.75,6.46-5.85,8.28-8.27,15.08-18.14,19.79-29.04v-.08c4.98-11.42,7.67-23.99,7.67-37.14V93.76c0-6.19-.6-12.31-1.74-18.23ZM61.4,61.4c8.38-8.37,19.62-13.43,32.36-13.43h488.37c12.73,0,24.08,5.07,32.36,13.43,1.48,1.49,2.88,3.15,4.11,4.8l-255.97,223.09c-7.06,6.19-15.78,9.24-24.68,9.24s-17.53-3.06-24.68-9.24L57.39,66.1c1.13-1.65,2.53-3.22,4.01-4.71ZM47.96,436.76V115.73l185.24,161.6L48.06,438.76c-.09-.61-.09-1.3-.09-2ZM582.13,482.53H93.75c-8.29,0-16.05-2.18-22.67-6.01l195.34-170.24,18.24,15.86c15.26,13.26,34.36,19.98,53.28,19.98s38.11-6.72,53.37-19.98l18.23-15.86,195.27,170.24c-6.63,3.83-14.39,6.01-22.68,6.01ZM627.91,436.76c0,.7,0,1.39-.09,2l-185.14-161.33,185.23-161.6v320.94Z"/>
  </g>
</svg>