<?xml version="1.0" encoding="UTF-8"?>
<svg id="Capa_2" data-name="Capa 2" xmlns="http://www.w3.org/2000/svg" viewBox="0 0 608.71 608.71">
  <defs>
    <style>
      .cls-1 {
        fill: #000f9f;
        fill-rule: evenodd;
      }
    </style>
  </defs>
  <g id="Capa_1-2" data-name="Capa 1">
    <path class="cls-1" d="M231.25,522.37c5.82,10.91,11.65,20.73,17.22,29.44-59.18-13.31-110.52-47.3-146.05-93.98,23.45-13.21,53.48-26.89,89.59-36.91,10.26,40.25,24.74,74.25,39.25,101.45ZM276.01,498.49c-12.6-23.63-25.23-53.14-34.33-88.1,19.59-2.91,40.5-4.59,62.68-4.59s43.09,1.68,62.68,4.58c-9.1,34.97-21.73,64.48-34.33,88.1-10.1,18.95-20.17,34.07-28.35,45.14-8.17-11.07-18.24-26.19-28.35-45.14ZM228.27,304.36c0,19.75,1.33,38.5,3.67,56.2,22.6-3.47,46.76-5.48,72.42-5.48s49.82,2.01,72.41,5.48c2.34-17.7,3.67-36.45,3.67-56.2s-1.33-38.5-3.67-56.2c-22.6,3.47-46.76,5.48-72.41,5.48s-49.82-2.01-72.42-5.48c-2.34,17.7-3.67,36.45-3.67,56.2ZM182.17,237.69c-2.95,20.93-4.63,43.17-4.63,66.66s1.68,45.73,4.63,66.66c-43.07,11.56-78.73,27.87-106.31,43.55-16.11-33.33-25.13-70.72-25.13-110.21s9.03-76.89,25.13-110.21c27.58,15.69,63.24,31.99,106.31,43.55ZM241.68,198.32c19.59,2.91,40.5,4.58,62.68,4.58s43.09-1.68,62.68-4.58c-9.1-34.96-21.73-64.47-34.33-88.1-10.1-18.95-20.17-34.08-28.35-45.14-8.17,11.07-18.24,26.2-28.35,45.14-12.6,23.63-25.23,53.14-34.33,88.1ZM426.54,237.7c2.95,20.93,4.63,43.17,4.63,66.66s-1.68,45.72-4.63,66.66c43.07,11.57,78.73,27.87,106.31,43.56,16.1-33.33,25.13-70.72,25.13-110.21s-9.03-76.88-25.13-110.21c-27.58,15.69-63.24,31.99-106.31,43.56ZM506.3,150.89c-23.45,13.21-53.49,26.89-89.59,36.91-10.26-40.25-24.74-74.25-39.25-101.45-5.82-10.91-11.65-20.73-17.22-29.44,59.18,13.31,110.53,47.3,146.05,93.98ZM192,187.8c-36.1-10.02-66.14-23.71-89.59-36.91,35.53-46.68,86.88-80.67,146.05-93.98-5.57,8.71-11.39,18.53-17.21,29.44-14.51,27.2-28.99,61.2-39.25,101.45ZM416.71,420.91c-10.26,40.25-24.74,74.25-39.25,101.45-5.82,10.91-11.65,20.73-17.22,29.44,59.18-13.31,110.53-47.3,146.06-93.98-23.45-13.21-53.49-26.89-89.59-36.91ZM304.36,608.71c168.09,0,304.36-136.26,304.36-304.36S472.45,0,304.36,0,0,136.26,0,304.36s136.26,304.36,304.36,304.36Z"/>
  </g>
</svg>