<?xml version="1.0" encoding="UTF-8"?>
<svg id="Capa_2" data-name="Capa 2" xmlns="http://www.w3.org/2000/svg" viewBox="0 0 504.22 504.22">
  <defs>
    <style>
      .cls-1 {
        fill: #0a66c2;
      }
    </style>
  </defs>
  <g id="Capa_1-2" data-name="Capa 1">
    <path class="cls-1" d="M429.64,429.64h-74.71v-117.02c0-27.9-.5-63.83-38.87-63.83s-44.88,30.42-44.88,61.77v119.08h-74.71v-240.64h71.73v32.9h1.01c14.62-24.96,41.85-39.92,70.76-38.87,75.72,0,89.71,49.79,89.71,114.63l-.04,131.94v.04ZM112.19,156.1c-23.88-.11-43.23-19.44-43.36-43.32,0-23.78,19.58-43.36,43.36-43.36s43.32,19.58,43.36,43.36c0,23.78-19.58,43.36-43.36,43.36v-.04ZM149.54,429.64h-74.79v-240.64h74.79v240.64ZM466.83,0H37.19C16.91-.12.32,16.12,0,36.39v431.45c.32,20.27,16.91,36.51,37.19,36.39h429.68c20.32.16,36.99-16.07,37.35-36.39V36.35C503.85,16.04,487.18-.17,466.87.04l-.04-.04Z"/>
  </g>
</svg>