<?xml version="1.0" encoding="UTF-8"?>
<svg id="Capa_2" data-name="Capa 2" xmlns="http://www.w3.org/2000/svg" viewBox="0 0 551.65 551.65">
  <defs>
    <style>
      .cls-1 {
        fill: #000f9f;
      }
    </style>
  </defs>
  <g id="Capa_1-2" data-name="Capa 1">
    <path id="Path_27" data-name="Path 27" class="cls-1" d="M534.41,551.65C239.4,551.33.32,312.25,0,17.24,0,7.72,7.72,0,17.24,0h98.09c17.04-.05,33.4,6.73,45.41,18.83l67.65,67.61c20.2,20.19,20.21,52.94.02,73.14,0,0-.02.02-.02.02l-49.1,48.92c37.75,69.21,94.63,126.09,163.84,163.84l48.92-48.96c20.2-20.19,52.93-20.19,73.13,0l67.65,67.65c12.06,11.99,18.83,28.3,18.83,45.3v98.06c0,9.52-7.72,17.24-17.24,17.24ZM34.79,34.48c9.38,262.44,219.95,473.02,482.39,482.42v-80.54c.02-7.9-3.12-15.49-8.72-21.07l-67.65-67.65c-6.73-6.73-17.64-6.73-24.38,0l-57.85,57.92c-5.26,5.25-13.29,6.54-19.93,3.21-84.41-42.74-152.98-111.3-195.73-195.7-3.36-6.64-2.08-14.69,3.17-19.96l57.92-57.89c6.74-6.72,6.75-17.64.03-24.38-.01-.01-.02-.02-.03-.03l-67.65-67.61c-5.57-5.6-13.14-8.74-21.03-8.72H34.79Z"/>
  </g>
</svg>