<?xml version="1.0" encoding="UTF-8"?>
<svg id="Capa_2" data-name="Capa 2" xmlns="http://www.w3.org/2000/svg" viewBox="0 0 512 512">
  <defs>
    <style>
      .cls-1 {
        fill: #fff;
      }

      .cls-2, .cls-3 {
        fill: #25d366;
      }

      .cls-3 {
        stroke: #fff;
        stroke-width: 26px;
      }
    </style>
  </defs>
  <g id="Capa_1-2" data-name="Capa 1">
    <g>
      <rect class="cls-2" width="512" height="512" rx="76.8" ry="76.8"/>
      <path class="cls-3" d="M123,393l14-65c-40.81-64.37-21.71-149.63,42.66-190.44,64.37-40.81,149.63-21.71,190.44,42.66,40.81,64.37,21.71,149.63-42.66,190.44-42.52,26.96-96.34,28.62-140.44,4.34l-64,18Z"/>
      <path class="cls-1" d="M308,273c-3-2-6-3-9,1l-12,16c-3,2-5,3-9,1-15-8-36-17-54-47-1-4,1-6,3-8l9-14c2-2,1-4,0-6l-12-29c-3-8-6-7-9-7h-8c-2,0-6,1-10,5-22,22-13,53,3,73,3,4,23,40,66,59,32,14,39,12,48,10,11-1,22-10,27-19,1-3,6-16,2-18"/>
    </g>
  </g>
</svg>